<svg xmlns="http://www.w3.org/2000/svg" width="236" height="64" fill="none"><path fill="#F74E4E" d="M158.3 62.5a1.5 1.5 0 01-1.6 1.5h-65a1.5 1.5 0 01-1.4-1.5c0-18 15.7-32.4 34-32.4 18.2 0 34 14.4 34 32.3v.2zm-6.8-35.8a6.7 6.7 0 100-13.4 6.7 6.7 0 000 13.4z"/><path fill="#FFB71B" d="M58.8 62.5a1.5 1.5 0 01-1.5 1.5h-55a1.5 1.5 0 01-1.5-1.5c0-.3.1-.6.3-.8L28.5 14a1.6 1.6 0 011.3-.7 1.5 1.5 0 011.2.7l27.5 47.7c.2.2.3.5.3.8z"/><path fill="#4FBF5E" d="M234.5 13.3c-.3 0-.6.1-.8.3L201 37.8c-.2.2-.5.2-.8.2-.2 0-.5 0-.7-.2L167 13.7a1.3 1.3 0 00-.7-.3 1.4 1.4 0 00-1.4 1.5v47.6a1.4 1.4 0 00.4 1 1.4 1.4 0 001 .5h68.2a1.4 1.4 0 001.3-1.5V15a1.4 1.4 0 00-1.3-1.5z"/><path fill="#71C5FF" d="M92.1 13.4h-7.9a.8.8 0 01-.7-.7V1.5A1.5 1.5 0 0082 0H67a1.5 1.5 0 00-1.5 1.5v61A1.5 1.5 0 0067 64h15a1.5 1.5 0 001.5-1.5V32.2a.7.7 0 01.7-.8h8a1.5 1.5 0 001.4-1.5V15a1.5 1.5 0 00-1.5-1.5z"/></svg>
